# xmcd CD database file
#
# Track frame offsets:
#	150
#	17737
#	43572
#
# Disc length: 927 seconds
#
# Revision: 1
# Processed by: cddbd v1.5.2PL0 Copyright (c) Steve Scherf et al.
# Submitted via: CDex 1.84
#
DISCID=1a039d03
DTITLE=Chris Rea - Only To Fly
DYEAR=1997
DGENRE=Rock
TTITLE0=Only To Fly (Single Radio Mix)
TTITLE1=Only To Fly (Full Length Version)
TTITLE2=Von Trips
EXTD=YEAR: 1997
EXTT0=
EXTT1=
EXTT2=
PLAYORDER=
